<?xml version="1.0" encoding="utf-8"?>
<!-- Generator: Adobe Illustrator 27.2.0, SVG Export Plug-In . SVG Version: 6.00 Build 0)  -->
<svg version="1.1" id="Layer_1" xmlns="http://www.w3.org/2000/svg" xmlns:xlink="http://www.w3.org/1999/xlink" x="0px" y="0px"
	 viewBox="0 0 8 12" style="enable-background:new 0 0 8 12;" xml:space="preserve">
<style type="text/css">
	.st0{fill:#F0A01F;}
</style>
<g>
	<path class="st0" d="M0,0.2v0.4c0,0.1,0.1,0.2,0.2,0.2h0.5l0.7,2.3c0,0,0,0,0,0L0.7,5.7c0,0,0,0,0,0H0.2C0.1,5.7,0,5.7,0,5.8v0.4
		c0,0.1,0.1,0.2,0.2,0.2h0.6c0,0,0,0,0,0L1.4,9c0,0,0,0,0,0l-0.7,2.3H0.2c-0.1,0-0.2,0.1-0.2,0.2v0.4C0,11.9,0.1,12,0.2,12h0.6
		c0,0,0.5,0,0.5,0c0,0,0,0,0,0l6.5-4.8C7.9,7.1,8,6.9,8,6.7V5.4C8,5.2,7.9,5,7.8,4.9L1.3,0c0,0,0,0,0,0H0.7h0H0.2C0.1,0,0,0.1,0,0.2
		z"/>
</g>
</svg>
