<?xml version="1.0" encoding="utf-8"?>
<!-- Generator: Adobe Illustrator 27.2.0, SVG Export Plug-In . SVG Version: 6.00 Build 0)  -->
<svg version="1.1" id="Layer_1" xmlns="http://www.w3.org/2000/svg" xmlns:xlink="http://www.w3.org/1999/xlink" x="0px" y="0px"
	 viewBox="0 0 12 18" style="enable-background:new 0 0 12 18;" xml:space="preserve">
<g>
	<path d="M12,17.8v-0.6c0-0.1-0.1-0.2-0.2-0.2H11l-1.1-3.5c0,0,0,0,0,0l1-3.9c0,0,0,0,0,0h0.8c0.1,0,0.2-0.1,0.2-0.2V8.7
		c0-0.1-0.1-0.2-0.2-0.2h-0.9c0,0,0,0,0,0l-1-3.8c0,0,0,0,0,0L11,1.1h0.7C11.9,1.1,12,1,12,0.9V0.2C12,0.1,11.9,0,11.8,0h-0.9
		c0,0-0.7,0-0.7,0c0,0,0,0,0,0L0.4,7.2C0.1,7.4,0,7.7,0,8v2c0,0.3,0.1,0.6,0.4,0.7l9.8,7.3c0,0,0,0,0,0h0.8h0h0.8
		C11.9,18,12,17.9,12,17.8z"/>
</g>
</svg>
