<?xml version="1.0" encoding="utf-8"?>
<!-- Generator: Adobe Illustrator 27.2.0, SVG Export Plug-In . SVG Version: 6.00 Build 0)  -->
<svg version="1.1" id="Layer_1" xmlns="http://www.w3.org/2000/svg" xmlns:xlink="http://www.w3.org/1999/xlink" x="0px" y="0px"
	 viewBox="0 0 332 326" style="enable-background:new 0 0 332 326;" xml:space="preserve">
<path d="M133.7,257.5c-4.4,0-8.3,2.8-8.4,13.8c0,11,3.9,13.7,8.3,13.7c4.5,0,8.4-2.7,8.4-13.7S138.1,257.5,133.7,257.5z
	 M188.6,257.6c-4.4,0-8.3,2.8-8.4,13.8c0,11,3.9,13.7,8.3,13.7c4.5,0,8.4-2.7,8.4-13.7S193,257.6,188.6,257.6z M206.3,209.4
	l16.3,24.8h1.6l8.1-1.6l-15.3-36L206.3,209.4z M51.7,202.8c0-14.5-7.3-20.7-18.2-20.7c-2.6,0-4.4,0.1-5.8,0.3l-0.1,42.3
	c1,0.2,2.5,0.2,3.7,0.2C43.5,224.9,51.7,219.5,51.7,202.8z M330.9,298l-7.8-10.3c-1.6-2.2-4.7-2.6-6.9-1l-12.7,9.6l-52.3-37.6
	l-12.4,0v16.7c0,5.9,2.8,7.8,7.3,7.8c1,0,2.3-0.1,3.5-0.3v13.4c-2.3,0.7-7.5,1.5-12,1.5c-11.9,0-16.3-5.9-16.2-20.9v-18.2h-6
	l0.8-12.4l6-0.4l0.6-7.1h-0.6h-18.7l-10.1-20.1l-3.3,3.2v16.9h-17.8l0.1-70.1h-3.6c-0.6,0-1-0.4-1-1v-2.6c0-0.6,0.5-1.1,1.1-1.1h3.6
	l17.8-0.4l-0.1,43.8l12.6-19.4h10.6l-6.5-15.2c-0.1-0.1,0.1-0.4,0.3-0.5l14-10.6c2.3-1.7,2.7-5,1-7.3l-7.8-10.3
	c-1.6-2.2-4.7-2.6-6.9-1l-14.5,11c-0.1,0.1-0.3,0.1-0.4,0l-65.4-52.5c-0.1,0-0.1-0.1-0.1-0.2l-26-72.4l12.6-9.5c2.3-1.7,2.7-5,1-7.3
	L106.9,2c-1.6-2.2-4.7-2.6-6.9-1L85.5,12c-0.1-0.2-12.6,9.1-12.6,9.1c-0.1,0-0.1,0.1-0.1,0.2L29.8,168c1,0,1.9,0,2.9,0
	c25.4,0,37.9,12.9,37.8,34.5c0,26.9-15.7,36.6-43.1,36.6c-7.7,0-13.4-0.4-17.6-0.7H9.1l-8.3,28.5c-1.8,6.3-0.6,13.1,3.4,18.3l25,33
	c3.7,4.9,9.5,7.8,15.7,7.8h257.6c0.1,0,0.2,0,0.2-0.1l13.2-10l0.3-0.2l13.7-10.4C332.2,303.6,332.7,300.3,330.9,298z M154.5,186.9
	c4.1,0,9.5,0.6,13.6,2.2l-1.8,13.2c-2.4-1-6.5-2-10.9-2c-6.9,0-11.8,3.8-11.9,13c0,9.7,6.1,12.9,12.2,12.9c4,0,8-0.6,10.9-1.8
	l1.3,13.2c-3.8,1.4-10.1,2.4-16,2.3c-16.2,0-26.7-9.2-26.7-26.2C125.4,198.3,135.4,186.9,154.5,186.9z M73.3,187.8h17.8v28.6
	c0,6,1.3,9.4,6.5,9.4c3.9,0,7.6-3.4,7.6-5.4v-27.8h-3.6c-0.6,0-1-0.4-1-1V189c0-0.6,0.5-1.1,1.1-1.1h3.6h17.8v32.8
	c0,7,0.1,13,0.4,18H111l-3.9-6.3h-0.2c-3.3,4.4-7.9,7.3-16.2,7.3c-13,0-17.4-8.5-17.4-21.7V187.8z M101.8,274.7l-0.8,14.6H80.4v22.5
	H84c0.6,0,1,0.4,1,1v2.6c-0.3,0.5-0.8,1-1.3,1h-3.6H62.2l0.1-65.6h-3.6c-0.6,0-1-0.4-1-1v-2.6c0-0.6,0.5-1.1,1.1-1.1h3.6l44.7,0.1
	l-0.8,14.7H80.4v13.8H101.8z M133.6,297.9c-13.2,0-26.8-7.3-26.7-26.4c0-20.1,13.6-26.7,26.8-26.7s26.8,6.9,26.7,26.8
	C160.4,290.3,146.8,297.9,133.6,297.9z M188.6,297.9c-13.2,0-26.8-7.3-26.7-26.4c0-20.1,13.6-26.7,26.8-26.7s26.8,6.9,26.7,26.8
	C215.3,290.4,201.8,298,188.6,297.9z M263.9,287h-2.1v7.2h-2.3V287h-2.2l0.1-2h6.7L263.9,287z M271.6,294.2l-0.1-3.2l0-2.7h0
	l-1.7,5.9h-1.9l-1.4-5.9h0l-0.1,2.7l-0.1,3.2h-2.2l0.4-9.2h3l0.7,2.6l0.9,3.4h0l0.9-3.4l0.7-2.6h3l0.3,9.2H271.6z"/>
</svg>
