<?xml version="1.0" encoding="utf-8"?>
<!-- Generator: Adobe Illustrator 27.2.0, SVG Export Plug-In . SVG Version: 6.00 Build 0)  -->
<svg version="1.1" id="Layer_1" xmlns="http://www.w3.org/2000/svg" xmlns:xlink="http://www.w3.org/1999/xlink" x="0px" y="0px"
	 viewBox="0 0 332 326" style="enable-background:new 0 0 332 326;" xml:space="preserve">
<path d="M142,271.3c0-11-3.9-13.8-8.3-13.8c-4.4,0-8.3,2.8-8.4,13.8c0,11,3.9,13.7,8.3,13.7C138.1,285,142,282.3,142,271.3z
	 M222.6,234.2l1.6,0l8.1-1.6l-15.3-36l-10.7,12.8L222.6,234.2z M330.9,298l-7.8-10.3c-1.6-2.2-4.7-2.6-6.9-1l-12.7,9.6l-54.4-39.1
	l-0.1,1.5l-10.2,0l0,16.7c0,5.9,2.8,7.8,7.3,7.8c1,0,2.3-0.1,3.5-0.3l0,13.4c-2.3,0.7-7.5,1.5-12,1.5c-11.9,0-16.3-5.9-16.2-20.9
	l0-18.2l-6,0l0.8-12.4l6-0.4l0.6-7.1l-0.6,0l-18.7,0l-10.1-20.1l-3.3,3.2l0,16.9l-17.8,0l0.1-70.1l-3.6,0c-0.6,0-1-0.4-1-1l0-2.6
	c0-0.6,0.5-1.1,1.1-1.1l3.6,0l17.8-0.4l-0.1,43.8l12.6-19.4l10.6,0l-6.5-15.2c-0.1-0.1,0.1-0.4,0.3-0.5l14-10.6c2.3-1.7,2.7-5,1-7.3
	l-7.8-10.3c-1.6-2.2-4.7-2.6-6.9-1l-14.5,11c-0.1,0.1-0.3,0.1-0.4,0l-65.4-52.5c-0.1,0-0.1-0.1-0.1-0.2l-26-72.4l12.6-9.5
	c2.3-1.7,2.7-5,1-7.3L106.9,2c-1.6-2.2-4.7-2.6-6.9-1L85.5,12c-0.1-0.2-12.6,9.1-12.6,9.1c-0.1,0-0.1,0.1-0.1,0.2L29.8,168
	c1,0,1.9,0,2.9,0c25.4,0,37.9,12.9,37.8,34.5c0,26.9-15.7,36.6-43.1,36.6c-7.7,0-13.4-0.4-17.6-0.7l-0.7,0l-8.3,28.5
	c-1.8,6.3-0.6,13.1,3.4,18.3l25,33c3.7,4.9,9.5,7.8,15.7,7.8l257.6,0c0.1,0,0.2,0,0.2-0.1l13.2-10l0.3-0.2l13.7-10.4
	C332.2,303.6,332.7,300.3,330.9,298z M154.5,186.9c4.1,0,9.5,0.6,13.6,2.2l-1.8,13.2c-2.4-1-6.5-2-10.9-2c-6.9,0-11.8,3.8-11.9,13
	c0,9.7,6.1,12.9,12.2,12.9c4,0,8-0.6,10.9-1.8l1.3,13.2c-3.8,1.4-10.1,2.4-16,2.3c-16.2,0-26.7-9.2-26.7-26.2
	C125.4,198.3,135.4,186.9,154.5,186.9z M73.3,218l0-30.2l17.8,0l0,28.6c0,6,1.3,9.4,6.5,9.4c3.9,0,7.6-3.4,7.6-5.4l0-27.8l-3.6,0
	c-0.6,0-1-0.4-1-1l0-2.6c0-0.6,0.5-1.1,1.1-1.1l3.6,0l17.8,0l0,32.8c0,7,0.1,13,0.4,18l-12.5,0l-3.9-6.3l-0.2,0
	c-3.3,4.4-7.9,7.3-16.2,7.3C77.7,239.7,73.3,231.2,73.3,218z M83.7,316.4l-3.6,0l-17.9,0l0.1-65.6l-3.6,0c-0.6,0-1-0.4-1-1l0-2.6
	c0-0.6,0.5-1.1,1.1-1.1l3.6,0l44.7,0.1l-0.8,14.7l-25.9,0l0,13.8l21.4,0l-0.8,14.6l-20.6,0l0,22.5l3.6,0c0.6,0,1,0.4,1,1l0,2.6
	C84.7,315.9,84.2,316.4,83.7,316.4z M133.6,297.9c-13.2,0-26.8-7.3-26.7-26.4c0-20.1,13.6-26.7,26.8-26.7c13.2,0,26.8,6.9,26.7,26.8
	C160.4,290.3,146.8,297.9,133.6,297.9z M188.6,297.9c-13.2,0-26.8-7.3-26.7-26.4c0-20.1,13.6-26.7,26.8-26.7
	c13.2,0,26.8,6.9,26.7,26.8C215.3,290.4,201.8,298,188.6,297.9z M264.3,294.9c-3.3,0.2-6.2-2.2-6.4-5.5c-0.2-3.2,2.3-6,5.6-6.2
	c3.4-0.2,6.1,2.2,6.3,5.4C270,292,267.6,294.7,264.3,294.9z M196.9,271.4c0-11-3.9-13.8-8.3-13.8c-4.4,0-8.3,2.8-8.4,13.8
	c0,11,3.9,13.7,8.3,13.7C193,285.1,196.9,282.4,196.9,271.4z M263.6,287.1c-0.4,0-0.6,0.1-0.7,0.1l0.1,1.7l0.6,0
	c0.7,0,1.3-0.3,1.3-0.9C264.9,287.3,264.5,287,263.6,287.1z M268.4,288.8c-0.2-2.6-2.2-4.6-4.8-4.4c-2.6,0.2-4.4,2.4-4.2,4.9
	c0.2,2.6,2.2,4.5,4.8,4.4C266.8,293.5,268.5,291.4,268.4,288.8z M265.5,292c-0.2-0.2-0.3-0.7-0.6-1.4c-0.1-0.6-0.5-0.9-1.3-0.8
	l-0.6,0l0.1,2.3l-1.3,0.1l-0.4-5.8c0.5-0.1,1.3-0.3,2.2-0.3c1.1-0.1,1.6,0.1,2,0.3c0.3,0.2,0.6,0.7,0.6,1.2c0,0.6-0.4,1.2-1.1,1.4
	l0,0.1c0.6,0.2,0.9,0.6,1.2,1.4c0.2,0.9,0.4,1.2,0.5,1.4L265.5,292z M31.3,224.9c12.2,0,20.4-5.4,20.4-22.1
	c0-14.5-7.3-20.7-18.2-20.7c-2.6,0-4.4,0.1-5.8,0.3l-0.1,42.3C28.6,224.9,30.1,224.9,31.3,224.9z"/>
</svg>
