<?xml version="1.0" encoding="utf-8"?>
<!-- Generator: Adobe Illustrator 27.2.0, SVG Export Plug-In . SVG Version: 6.00 Build 0)  -->
<svg version="1.1" id="Layer_1" xmlns="http://www.w3.org/2000/svg" xmlns:xlink="http://www.w3.org/1999/xlink" x="0px" y="0px"
	 viewBox="0 0 64 64" style="enable-background:new 0 0 64 64;" xml:space="preserve">
<style type="text/css">
	.st0{fill:#231F20;}
</style>
<g>
	<path class="st0" d="M57.1,29.7c0-2,2.6-9.5,2.6-9.5s-5.4,1.8-6.8,1.8c-1.5,0-3.7-2.6-3.7-4.7c0,0-7,8.8-8.5,8.2
		c-1.5-0.6,2.6-17.9,2.6-17.9s-4.2,3.6-5.6,3.1c-1.5-0.5-5.6-10.6-5.6-10.6S32,0,31.9,0c-0.1,0-0.2,0.1-0.2,0.1s-4.1,10.1-5.6,10.6
		c-1.5,0.5-5.6-3.1-5.6-3.1s4.1,17.3,2.6,17.9c-1.5,0.6-8.5-8.2-8.5-8.2c0,2.1-2.3,4.7-3.7,4.7s-6.8-1.8-6.8-1.8s2.6,7.5,2.6,9.5
		S4,31.7,4,32c0,0.4,2.6,2.1,6.5,5.5c3.8,3.4,7.3,5.6,7.3,7.3c0,1.3-1.4,4.6-1.4,4.6s6.7-1.1,10.5-1.8L14.6,31.1c0,0,0,0,0,0
		c0,0,0-1.4,0-1.4V28c0-0.2,0.2-0.4,0.4-0.4h1.2c0.3,0,0.5,0.2,0.5,0.5v1.4l6.7,2.1c0,0,0,0,0,0l7.4-1.9c0,0,0,0,0,0V28
		c0-0.2,0.2-0.4,0.4-0.4h1.2c0.3,0,0.5,0.2,0.5,0.5v1.6c0,0,0,0,0,0l7.5,1.9c0,0,0,0,0,0l6.8-2.1V28c0-0.2,0.2-0.4,0.4-0.4h1.2
		c0.3,0,0.5,0.2,0.5,0.5v1.6v0v1.5c0,0,0,0,0,0L36.8,47.6c3.7,0.6,10.7,1.8,10.7,1.8S46,46,46,44.8c0-1.6,3.5-3.9,7.3-7.3
		c3.8-3.4,6.5-5.1,6.5-5.5C59.8,31.7,57.1,31.7,57.1,29.7z"/>
	<g>
		<g>
			<path class="st0" d="M4,45.9L4,45.9l-1.4,1l-1.6,1.2L0,47.1l4.8-3.5L6,45.1l-1,1.4l-1.4,1.8l0,0l2.1-0.9l1.6-0.7l1.2,1.5L4,52.1
				l-0.9-1.2l1.6-1.3L6,48.5l0,0L2.3,50l-0.8-1L4,45.9z"/>
			<path class="st0" d="M8.9,56.4l-1.2-1.1l0.6-1.2l-1.1-1c-0.4,0.3-0.7,0.5-1.1,0.8l-1.2-1l5.2-3.4l1.5,1.3L8.9,56.4z M9.9,51
				l-0.4,0.3L8,52.4l0.8,0.7l0.8-1.6L9.9,51L9.9,51z"/>
			<path class="st0" d="M12.9,52c0.5,0.3,1.1,0.6,1.7,0.9c1.8,1.1,2.2,2.6,1.2,4.2C14.5,59,13,59,11,57.8c-0.6-0.3-1-0.6-1.2-0.8
				L12.9,52z M13.5,53.7l-1.9,3c0.1,0.1,0.2,0.1,0.3,0.2c0.9,0.5,1.7,0.5,2.4-0.7c0.6-1,0.4-1.8-0.4-2.3
				C13.8,53.9,13.6,53.8,13.5,53.7z"/>
			<path class="st0" d="M20.6,57.3l-2-0.9l-0.4,1l1.9,0.8l-0.5,1.1l-1.9-0.8l-0.5,1.1l2.2,0.9l-0.5,1.1l-3.5-1.5l2.3-5.5l3.5,1.5
				L20.6,57.3z"/>
			<path class="st0" d="M24,63.2l-1.5-0.3l1.3-5.8l1.5,0.3L24,63.2z"/>
			<path class="st0" d="M28.7,63.8c-1-2.5-1.3-3.3-1.5-4l0,0L27,61.4l-0.2,2.3l-1.4-0.1l0.6-5.9l1.7,0.2c0.5,1.3,1,2.5,1.4,3.9l0,0
				l0.1-1.5l0.2-2.1l1.4,0.1L30.3,64L28.7,63.8z"/>
			<path class="st0" d="M37.3,62.4c0.4-0.1,0.9-0.2,1.2-0.3l0.3,1.2c-0.3,0.2-0.8,0.3-1.5,0.4c-2.1,0.3-3.1-1-3.3-2.6
				c-0.2-1.9,0.8-3.3,2.7-3.5c0.6-0.1,1.2,0,1.5,0.1l0,1.2c-0.4-0.1-0.8-0.1-1.2-0.1c-0.9,0.1-1.5,0.7-1.4,2
				C35.6,62,36.3,62.5,37.3,62.4z"/>
			<path class="st0" d="M44.9,61.8l-1.6,0.4l-0.7-1.2l-1.5,0.4c0,0.4,0,0.9,0,1.3l-1.5,0.4l0-6.2l1.9-0.5L44.9,61.8z M41,58l0,0.5
				l0.1,1.8l1-0.3l-0.9-1.6L41,58L41,58z"/>
			<path class="st0" d="M48.9,60c-2.1-1.6-2.8-2.2-3.3-2.6l0,0l0.7,1.4l1,2.1l-1.3,0.6L43.4,56l1.6-0.7c1.1,0.8,2.1,1.6,3.2,2.6l0,0
				l-0.7-1.4l-0.9-1.9l1.3-0.6l2.5,5.4L48.9,60z"/>
			<path class="st0" d="M55.8,55.7l-1.3,0.9l-1-0.9l-1.2,0.9c0.2,0.4,0.3,0.8,0.5,1.3l-1.3,0.9l-2-5.9l1.6-1.1L55.8,55.7z
				 M50.8,53.4l0.2,0.5l0.7,1.7l0.9-0.6l-1.3-1.2L50.8,53.4L50.8,53.4z"/>
			<path class="st0" d="M52.5,50.8c0.4-0.4,0.8-0.9,1.3-1.4c1.6-1.5,3.1-1.4,4.3-0.1c1.6,1.6,1.2,3.2-0.5,4.8
				c-0.5,0.5-0.8,0.8-1.1,1L52.5,50.8z M54.4,50.6l2.5,2.6c0.1,0,0.2-0.1,0.2-0.2c0.7-0.7,0.9-1.5,0-2.5c-0.8-0.9-1.7-0.8-2.3-0.2
				C54.6,50.4,54.5,50.5,54.4,50.6z"/>
			<path class="st0" d="M64,46.7L63,48l-1.2-0.5l-0.9,1.2c0.3,0.3,0.6,0.7,0.8,1l-1,1.3l-3.7-5l1.2-1.6L64,46.7z M58.6,46.1l0.3,0.4
				l1.2,1.4l0.6-0.8L59,46.3L58.6,46.1L58.6,46.1z"/>
		</g>
	</g>
</g>
</svg>
